<svg width="24" height="24" viewBox="0 0 24 24" fill="none" xmlns="http://www.w3.org/2000/svg">
  <path d="M3.5 10.25V20C3.5 20.4142 3.83579 20.75 4.25 20.75H9.25V15C9.25 14.0335 10.0335 13.25 11 13.25H13C13.9665 13.25 14.75 14.0335 14.75 15V20.75H19.75C20.1642 20.75 20.5 20.4142 20.5 20V10.25L12 3.5L3.5 10.25Z" fill="currentColor"/>
  <path d="M12 2L1 11H4V21C4 21.5523 4.44772 22 5 22H10V15.5C10 14.6716 10.6716 14 11.5 14H12.5C13.3284 14 14 14.6716 14 15.5V22H19C19.5523 22 20 21.5523 20 21V11H23L12 2Z" fill="currentColor"/>
</svg>
