<svg width="24" height="24" viewBox="0 0 24 24" fill="none" xmlns="http://www.w3.org/2000/svg">
  <path d="M9 12C11.2091 12 13 10.2091 13 8C13 5.79086 11.2091 4 9 4C6.79086 4 5 5.79086 5 8C5 10.2091 6.79086 12 9 12Z" fill="currentColor"/>
  <path d="M9 14C5.13401 14 2 16.2386 2 19V20C2 20.5523 2.44772 21 3 21H15C15.5523 21 16 20.5523 16 20V19C16 16.2386 12.866 14 9 14Z" fill="currentColor"/>
  <path d="M18 9C18 11.2091 16.2091 13 14 13C13.6589 13 13.3291 12.9531 13.0162 12.8649C13.6435 11.8652 14 10.6898 14 9.5C14 8.13916 13.5398 6.88569 12.768 5.87976C13.1168 5.32516 13.7114 4.92694 14.4212 4.78994C14.2801 5.17164 14.2 5.57676 14.2 6C14.2 7.65685 15.5431 9 17.2 9H18Z" fill="currentColor"/>
  <path d="M19 14C18.5 14 18 14.1 17.5 14.25C18.5 15.23 19 16.5 19 18V20H21C21.5523 20 22 19.5523 22 19V18C22 15.79 20.66 14 19 14Z" fill="currentColor"/>
</svg>
