<svg width="24" height="24" viewBox="0 0 24 24" fill="none" xmlns="http://www.w3.org/2000/svg">
  <path d="M4 2C3.44772 2 3 2.44772 3 3V21C3 21.3466 3.17945 21.6684 3.47427 21.8507C3.76909 22.0329 4.13723 22.0494 4.44721 21.8944L6.5 20.8681L8.55279 21.8944C8.83431 22.0352 9.16569 22.0352 9.44721 21.8944L11.5 20.8681L13.5528 21.8944C13.8343 22.0352 14.1657 22.0352 14.4472 21.8944L16.5 20.8681L18.5528 21.8944C18.8628 22.0494 19.2309 22.0329 19.5257 21.8507C19.8205 21.6684 20 21.3466 20 21V3C20 2.44772 19.5523 2 19 2H4ZM7 7H16V9H7V7ZM7 11H16V13H7V11ZM7 15H13V17H7V15Z" fill="currentColor"/>
</svg>
