<svg width="24" height="24" viewBox="0 0 24 24" fill="none" xmlns="http://www.w3.org/2000/svg">
  <path fill-rule="evenodd" clip-rule="evenodd" d="M12 8.5C10.067 8.5 8.5 10.067 8.5 12C8.5 13.933 10.067 15.5 12 15.5C13.933 15.5 15.5 13.933 15.5 12C15.5 10.067 13.933 8.5 12 8.5ZM10.5 12C10.5 11.1716 11.1716 10.5 12 10.5C12.8284 10.5 13.5 11.1716 13.5 12C13.5 12.8284 12.8284 13.5 12 13.5C11.1716 13.5 10.5 12.8284 10.5 12Z" fill="currentColor"/>
  <path fill-rule="evenodd" clip-rule="evenodd" d="M10.7673 1.01709C10.9925 0.999029 11.2423 1.00001 11.5159 1.00001L12.4842 1.00001C12.7577 1.00001 13.0076 0.999029 13.2328 1.01709C13.4754 1.03666 13.7454 1.08205 14.0185 1.22049C14.4078 1.41807 14.7252 1.73548 14.9227 2.12477C15.0611 2.39789 15.1065 2.66785 15.1261 2.91047C15.1378 3.06015 15.1434 3.22503 15.1456 3.40006C15.1504 3.33883 15.1592 3.29511 15.1706 3.26205C15.2129 3.13921 15.3028 3.02568 15.4611 2.94013C15.6194 2.85459 15.7632 2.83329 15.893 2.83581C15.9308 2.83654 15.9746 2.83998 16.0336 2.84469C16.2531 2.86223 16.5493 2.88618 16.8987 2.92255C17.1381 2.94746 17.3551 2.96862 17.5471 3.00214C17.7531 3.03811 17.9891 3.09704 18.2221 3.22051C18.6114 3.42716 18.9276 3.74432 19.1327 4.12974C19.2653 4.37888 19.3229 4.62896 19.3552 4.84782C19.3833 5.03982 19.3979 5.26906 19.4093 5.52455L19.434 6.08044C19.4448 6.08739 19.4557 6.09444 19.4665 6.10159C19.5144 6.13333 19.5736 6.17386 19.6408 6.2201C19.7755 6.31279 19.959 6.44082 20.1655 6.58799C20.3601 6.72649 20.5328 6.85377 20.6744 6.9793C20.8263 7.11395 20.9861 7.29025 21.1 7.51393C21.2846 7.87639 21.3469 8.28757 21.2778 8.68745C21.232 8.95181 21.1227 9.17884 21.0106 9.37236C20.9063 9.55228 20.7727 9.75287 20.6221 9.97837L20.3394 10.4012C20.3457 10.4226 20.3514 10.4457 20.3563 10.4712C20.3869 10.6315 20.3868 10.8183 20.3865 11.0982L20.3865 11.1015V12.8985L20.3865 12.9018C20.3868 13.1817 20.3869 13.3685 20.3563 13.5288C20.3514 13.5543 20.3457 13.5774 20.3394 13.5988L20.6221 14.0216C20.7727 14.2471 20.9063 14.4477 21.0106 14.6276C21.1227 14.8212 21.232 15.0482 21.2778 15.3126C21.3469 15.7124 21.2846 16.1236 21.1 16.4861C20.9861 16.7098 20.8263 16.8861 20.6744 17.0207C20.5328 17.1462 20.3601 17.2735 20.1655 17.412L19.9593 17.5588C19.8935 17.606 19.8342 17.6487 19.7803 17.6871L19.434 17.9196L19.4093 18.4755C19.3979 18.7309 19.3833 18.9602 19.3552 19.1522C19.3229 19.371 19.2653 19.6211 19.1327 19.8703C18.9276 20.2557 18.6114 20.5728 18.2221 20.7795C17.9891 20.903 17.7531 20.9619 17.5471 20.9979C17.3551 21.0314 17.1381 21.0525 16.8987 21.0774C16.5493 21.1138 16.2531 21.1378 16.0336 21.1553C15.9746 21.16 15.9308 21.1635 15.893 21.1642C15.7632 21.1667 15.6194 21.1454 15.4611 21.0599C15.3028 20.9743 15.2129 20.8608 15.1706 20.738C15.1592 20.7049 15.1504 20.6612 15.1456 20.5999C15.1434 20.775 15.1378 20.9399 15.1261 21.0895C15.1065 21.3321 15.0611 21.6021 14.9227 21.8752C14.7252 22.2645 14.4078 22.5819 14.0185 22.7795C13.7454 22.918 13.4754 22.9633 13.2328 22.9829C13.0076 23.001 12.7577 23 12.4842 23H11.5159C11.2423 23 10.9925 23.001 10.7673 22.9829C10.5247 22.9633 10.2547 22.918 9.98159 22.7795C9.5923 22.5819 9.27489 22.2645 9.07731 21.8752C8.93886 21.6021 8.89347 21.3321 8.87391 21.0895C8.86223 20.9399 8.85668 20.775 8.85448 20.5999C8.84969 20.6612 8.84085 20.7049 8.82949 20.738C8.78718 20.8608 8.69725 20.9743 8.53896 21.0599C8.38067 21.1454 8.2369 21.1667 8.10705 21.1642C8.06921 21.1635 8.02541 21.16 7.96649 21.1553C7.74701 21.1378 7.4508 21.1138 7.10132 21.0774C6.8619 21.0525 6.6449 21.0314 6.45298 20.9979C6.24698 20.9619 6.01098 20.903 5.77803 20.7795C5.38867 20.5728 5.07244 20.2557 4.86734 19.8703C4.73476 19.6211 4.67711 19.371 4.64489 19.1522C4.61673 18.9602 4.60219 18.7309 4.59076 18.4755L4.56609 17.9196L4.21974 17.6871C4.16581 17.6487 4.10655 17.606 4.04077 17.5588L3.83456 17.412C3.63992 17.2735 3.46729 17.1462 3.32564 17.0207C3.17378 16.8861 3.01394 16.7098 2.90005 16.4861C2.71546 16.1236 2.65312 15.7124 2.72226 15.3126C2.76802 15.0482 2.87738 14.8212 2.98943 14.6276C3.09377 14.4477 3.22731 14.2471 3.37798 14.0216L3.66071 13.5988C3.65438 13.5774 3.64867 13.5543 3.64373 13.5288C3.61319 13.3685 3.61324 13.1817 3.61354 12.9018L3.61358 12.8985V11.1015L3.61354 11.0982C3.61324 10.8183 3.61319 10.6315 3.64373 10.4712C3.64867 10.4457 3.65438 10.4226 3.66071 10.4012L3.37798 9.97837C3.22731 9.75287 3.09377 9.55228 2.98943 9.37236C2.87738 9.17884 2.76802 8.95181 2.72226 8.68745C2.65312 8.28757 2.71546 7.87639 2.90005 7.51393C3.01394 7.29025 3.17378 7.11395 3.32564 6.9793C3.46729 6.85377 3.63992 6.72649 3.83456 6.58799C4.04104 6.44082 4.22455 6.31279 4.35926 6.2201C4.42648 6.17386 4.48565 6.13333 4.53359 6.10159C4.54432 6.09444 4.55523 6.08739 4.56609 6.08044L4.59076 5.52455C4.60219 5.26906 4.61673 5.03982 4.64489 4.84782C4.67711 4.62896 4.73476 4.37888 4.86734 4.12974C5.07244 3.74432 5.38867 3.42716 5.77803 3.22051C6.01098 3.09704 6.24698 3.03811 6.45298 3.00214C6.6449 2.96862 6.8619 2.94746 7.10132 2.92255C7.4508 2.88618 7.74701 2.86223 7.96649 2.84469C8.02541 2.83998 8.06921 2.83654 8.10705 2.83581C8.2369 2.83329 8.38067 2.85459 8.53896 2.94013C8.69725 3.02568 8.78718 3.13921 8.82949 3.26205C8.84085 3.29511 8.84969 3.33883 8.85448 3.40006C8.85668 3.22503 8.86223 3.06015 8.87391 2.91047C8.89347 2.66785 8.93886 2.39789 9.07731 2.12477C9.27489 1.73548 9.5923 1.41807 9.98159 1.22049C10.2547 1.08205 10.5247 1.03666 10.7673 1.01709ZM8.70807 4.83231C8.44058 4.85359 8.20927 4.8714 8.01783 4.89423L7.70295 6.96541C7.65309 7.29327 7.47035 7.58614 7.1972 7.77283C6.92404 7.95952 6.58578 8.02275 6.26371 7.94773L4.24325 7.47757C4.12555 7.66019 4.00906 7.87295 3.87913 8.12896L5.36173 9.65848C5.59833 9.90248 5.71989 10.2374 5.69415 10.5773C5.66842 10.9172 5.4976 11.2302 5.22501 11.4364L5.61358 11.1285V12.8715L5.22501 12.5636C5.4976 12.7698 5.66842 13.0828 5.69415 13.4227C5.71989 13.7626 5.59833 14.0975 5.36173 14.3415L3.87913 15.871C4.00906 16.1271 4.12555 16.3398 4.24325 16.5224L6.26371 16.0523C6.58578 15.9772 6.92404 16.0405 7.1972 16.2272C7.47035 16.4139 7.65309 16.7067 7.70295 17.0346L8.01783 19.1058C8.20927 19.1286 8.44058 19.1464 8.70807 19.1677C8.70696 19.0298 8.70648 18.8708 8.70648 18.6862V5.31385C8.70648 5.12923 8.70696 4.97019 8.70807 4.83231ZM10.7065 5.05143V18.9486C10.7065 19.2582 10.7074 19.4315 10.7169 19.5492C10.7213 19.603 10.7259 19.6328 10.7288 19.6474C10.7518 19.6583 10.7799 19.6682 10.8324 19.6724C10.9501 19.6819 11.1234 19.6827 11.433 19.6827H12.567C12.8766 19.6827 13.0499 19.6819 13.1676 19.6724C13.2201 19.6682 13.2482 19.6583 13.2712 19.6474C13.2741 19.6328 13.2787 19.603 13.2831 19.5492C13.2926 19.4315 13.2935 19.2582 13.2935 18.9486V5.05143C13.2935 4.74184 13.2926 4.56848 13.2831 4.45077C13.2787 4.39697 13.2741 4.36721 13.2712 4.35257C13.2482 4.34168 13.2201 4.33176 13.1676 4.32762C13.0499 4.31812 12.8766 4.31727 12.567 4.31727H11.433C11.1234 4.31727 10.9501 4.31812 10.8324 4.32762C10.7799 4.33176 10.7518 4.34168 10.7288 4.35257C10.7259 4.36721 10.7213 4.39697 10.7169 4.45077C10.7074 4.56848 10.7065 4.74184 10.7065 5.05143ZM15.2919 4.83231C15.293 4.97019 15.2935 5.12923 15.2935 5.31385V18.6862C15.2935 18.8708 15.293 19.0298 15.2919 19.1677C15.5594 19.1464 15.7907 19.1286 15.9822 19.1058L16.297 17.0346C16.3469 16.7067 16.5297 16.4139 16.8028 16.2272C17.076 16.0405 17.4142 15.9772 17.7363 16.0523L19.7568 16.5224C19.8745 16.3398 19.9909 16.1271 20.1209 15.871L18.6383 14.3415C18.4017 14.0975 18.2801 13.7626 18.3059 13.4227C18.3316 13.0828 18.5024 12.7698 18.775 12.5636L18.3864 12.8715V11.1285L18.775 11.4364C18.5024 11.2302 18.3316 10.9172 18.3059 10.5773C18.2801 10.2374 18.4017 9.90248 18.6383 9.65848L20.1209 8.12896C19.9909 7.87295 19.8745 7.66019 19.7568 7.47757L17.7363 7.94773C17.4142 8.02275 17.076 7.95952 16.8028 7.77283C16.5297 7.58614 16.3469 7.29327 16.297 6.96541L15.9822 4.89423C15.7907 4.8714 15.5594 4.85359 15.2919 4.83231Z" fill="currentColor"/>
</svg>
