<svg width="24" height="24" viewBox="0 0 24 24" fill="none" xmlns="http://www.w3.org/2000/svg">
  <path d="M2 7C2 5.89543 2.89543 5 4 5H18C19.1046 5 20 5.89543 20 7V8H4C2.89543 8 2 7.10457 2 6V7Z" fill="currentColor"/>
  <path d="M2 9H20V19C20 20.1046 19.1046 21 18 21H4C2.89543 21 2 20.1046 2 19V9Z" fill="currentColor"/>
  <path d="M22 11V17C22 17.5523 21.5523 18 21 18H18C16.8954 18 16 17.1046 16 16V12C16 10.8954 16.8954 10 18 10H21C21.5523 10 22 10.4477 22 11Z" fill="currentColor"/>
  <circle cx="18" cy="14" r="1" fill="white"/>
</svg>
